<svg id="Layer_1" data-name="Layer 1" xmlns="http://www.w3.org/2000/svg" xmlns:xlink="http://www.w3.org/1999/xlink" viewBox="0 0 1556.06 763.21"><defs><style>.cls-1{font-size:14px;}.cls-1,.cls-21,.cls-27,.cls-39,.cls-40,.cls-52,.cls-59{fill:#3d3d3d;}.cls-1,.cls-52{font-family:FiraGO-Medium, FiraGO;font-weight:500;}.cls-2{letter-spacing:-0.01em;}.cls-21,.cls-3{font-family:FiraGO-Book, FiraGO;}.cls-3,.cls-58{font-weight:400;}.cls-4{letter-spacing:-0.04em;}.cls-5{letter-spacing:0em;}.cls-6{letter-spacing:0em;}.cls-7{letter-spacing:-0.02em;}.cls-8{letter-spacing:-0.01em;}.cls-9{letter-spacing:-0.04em;}.cls-10{letter-spacing:-0.01em;}.cls-11{letter-spacing:-0.02em;}.cls-12{letter-spacing:-0.01em;}.cls-13{letter-spacing:0em;}.cls-14{letter-spacing:-0.02em;}.cls-15{letter-spacing:0em;}.cls-16{letter-spacing:0em;}.cls-17{letter-spacing:-0.05em;}.cls-18{letter-spacing:-0.03em;}.cls-19{letter-spacing:-0.05em;}.cls-20{letter-spacing:0.02em;}.cls-21,.cls-27{font-size:9.09px;}.cls-22{letter-spacing:-0.02em;}.cls-23{letter-spacing:-0.01em;}.cls-24{letter-spacing:0em;}.cls-25{letter-spacing:-0.01em;}.cls-26{letter-spacing:-0.03em;}.cls-27,.cls-58{font-family:FiraGO-Italic, FiraGO;}.cls-27,.cls-58,.cls-59{font-style:italic;}.cls-28{letter-spacing:-0.02em;}.cls-29{letter-spacing:0em;}.cls-30{letter-spacing:-0.03em;}.cls-31{letter-spacing:0em;}.cls-32{letter-spacing:-0.01em;}.cls-33{letter-spacing:-0.04em;}.cls-34{letter-spacing:-0.04em;}.cls-35{fill:#727272;}.cls-36{stroke:#000;fill:url(#linear-gradient);}.cls-36,.cls-38{stroke-miterlimit:10;}.cls-36,.cls-49{stroke-width:0.5px;}.cls-37{fill:#fff;}.cls-38,.cls-42,.cls-44,.cls-45,.cls-46,.cls-47,.cls-48,.cls-49,.cls-50,.cls-69{fill:none;}.cls-38{stroke:#3d3d3d;stroke-width:0.8px;}.cls-40{font-size:11.68px;font-family:FiraGO-Light, FiraGO;}.cls-40,.cls-59{font-weight:300;}.cls-41{letter-spacing:-0.04em;}.cls-42,.cls-44,.cls-45,.cls-46,.cls-47,.cls-48,.cls-49,.cls-50{stroke:#9b9795;}.cls-42,.cls-44,.cls-45,.cls-46,.cls-47,.cls-48,.cls-49,.cls-50,.cls-69{stroke-linecap:square;stroke-linejoin:bevel;}.cls-42{stroke-width:0.3px;}.cls-43{fill:#ffa;}.cls-44{stroke-width:0.7px;}.cls-45{stroke-width:1.24px;}.cls-46{stroke-width:0.6px;}.cls-47{stroke-width:1.03px;}.cls-48{stroke-width:0.8px;}.cls-50{stroke-width:0.92px;}.cls-51{letter-spacing:-0.01em;}.cls-52{font-size:18px;}.cls-53{letter-spacing:-0.02em;}.cls-54{letter-spacing:0em;}.cls-55{letter-spacing:-0.01em;}.cls-56{letter-spacing:0em;}.cls-57{letter-spacing:-0.04em;}.cls-59{font-size:15px;font-family:FiraGO-LightItalic, FiraGO;}.cls-60{letter-spacing:-0.02em;}.cls-61{letter-spacing:-0.01em;}.cls-62{letter-spacing:0em;}.cls-63{letter-spacing:-0.01em;}.cls-64{letter-spacing:-0.04em;}.cls-65{letter-spacing:-0.02em;}.cls-66{letter-spacing:-0.04em;}.cls-67{letter-spacing:-0.03em;}.cls-68{fill:#1b3677;fill-rule:evenodd;}.cls-69{stroke:#1b3677;stroke-width:0.74px;}</style><linearGradient id="linear-gradient" x1="808.77" y1="55.92" x2="1011.44" y2="55.92" gradientTransform="translate(-28.8 25.86)" gradientUnits="userSpaceOnUse"><stop offset="0" stop-color="#fa1689"/><stop offset="1" stop-color="#00e0ff"/></linearGradient></defs><title>sample6</title><text class="cls-1" transform="translate(953.37 157.94) scale(1.05 1)"><tspan xml:space="preserve">                                                                                        თბილისის უბ</tspan><tspan class="cls-2" x="401.94" y="0">ნ</tspan><tspan x="410.17" y="0">ები</tspan><tspan class="cls-3"><tspan x="216.96" y="33.6">1 - ავჭალა, </tspan><tspan class="cls-4" x="294.45" y="33.6">გ</tspan><tspan class="cls-5" x="301.78" y="33.6">ლდანის </tspan><tspan class="cls-2" x="362.61" y="33.6">ხ</tspan><tspan x="370.56" y="33.6">ევი; </tspan><tspan x="216.96" y="50.4">2 - დი</tspan><tspan class="cls-2" x="256.28" y="50.4">დ</tspan><tspan x="267.75" y="50.4">უ</tspan><tspan class="cls-2" x="275.5" y="50.4">ბ</tspan><tspan class="cls-6" x="283.5" y="50.4">ე; </tspan><tspan x="216.96" y="67.2">3 - დიღმის </tspan><tspan class="cls-2" x="294.63" y="67.2">მ</tspan><tspan class="cls-5" x="302.58" y="67.2">ასივი; </tspan><tspan x="216.96" y="84">4 - დიღომი, ვაშლიჯვარი; </tspan><tspan x="216.96" y="100.8">5 - </tspan><tspan class="cls-4" x="237.06" y="100.8">გ</tspan><tspan x="244.4" y="100.8">ლდანის კ</tspan><tspan class="cls-7" x="312.48" y="100.8">ე</tspan><tspan x="319.84" y="100.8">ნტი მ / რ; </tspan><tspan x="216.96" y="117.6">6 - </tspan><tspan class="cls-4" x="237.52" y="117.6">გ</tspan><tspan x="244.86" y="117.6">ლდანის </tspan><tspan class="cls-8" x="305.69" y="117.6">ლ</tspan><tspan class="cls-7" x="319.8" y="117.6">უ</tspan><tspan x="327.28" y="117.6">წი მ/რ; </tspan><tspan x="216.96" y="134.4">7 - კ</tspan><tspan class="cls-9" x="243.53" y="134.4">ი</tspan><tspan x="250.68" y="134.4">კეთი,კოჯორი; </tspan><tspan x="216.96" y="151.2">8 - კოსტავა, ბახტრიონი, დოლი</tspan><tspan class="cls-7" x="432.9" y="151.2">ძ</tspan><tspan x="440.72" y="151.2">ე, ხილიანი; </tspan><tspan x="216.96" y="168">9 - ლილო; </tspan><tspan x="216.96" y="184.8">10 - </tspan><tspan class="cls-7" x="243.86" y="184.8">ძ</tspan><tspan x="251.68" y="184.8">ველი ნა</tspan><tspan class="cls-2" x="308.14" y="184.8">ძ</tspan><tspan x="316.09" y="184.8">ალადევი, ლოტკინი; </tspan><tspan class="cls-10" x="216.96" y="201.6">1</tspan><tspan x="222.77" y="201.6">1 - </tspan><tspan class="cls-7" x="241.89" y="201.6">მე</tspan><tspan x="257.07" y="201.6">სა</tspan><tspan class="cls-7" x="272.2" y="201.6">მ</tspan><tspan x="280.01" y="201.6">ე </tspan><tspan class="cls-2" x="291.41" y="201.6">მ</tspan><tspan x="299.36" y="201.6">ასივი; </tspan><tspan x="216.96" y="218.4">12 - მ</tspan><tspan class="cls-11" x="251.05" y="218.4">უ</tspan><tspan x="258.52" y="218.4">ხიანი; </tspan><tspan x="216.96" y="235.2">13 - ნა</tspan><tspan class="cls-2" x="258.58" y="235.2">ძ</tspan><tspan x="266.53" y="235.2">ალადევი; </tspan><tspan x="216.96" y="252">14 - ნავთ</tspan><tspan class="cls-8" x="278.18" y="252">ლ</tspan><tspan class="cls-6" x="292.29" y="252">უღი; </tspan><tspan x="216.96" y="268.8">15 - </tspan><tspan class="cls-8" x="243.05" y="268.8">ნ</tspan><tspan class="cls-6" x="251.28" y="268.8" xml:space="preserve">უცუბიძის მ/რ;  </tspan><tspan x="216.96" y="285.6">16 - ორ</tspan><tspan class="cls-2" x="265.05" y="285.6">ხ</tspan><tspan x="273" y="285.6">ევი, აეროპორტი; </tspan><tspan x="216.96" y="302.4">17 - </tspan><tspan class="cls-2" x="242.27" y="302.4">კ</tspan><tspan x="249.38" y="302.4">ალა, ორთაჭალა; </tspan><tspan x="216.96" y="319.2">18 - ფონიჭალა; </tspan><tspan x="216.96" y="336">19 - ქვემო ჩუ</tspan><tspan class="cls-12" x="304.71" y="336">ღ</tspan><tspan x="315.33" y="336">ურეთი; </tspan><tspan x="216.96" y="352.8">20 - ქვემო სა</tspan><tspan class="cls-4" x="305.39" y="352.8">მ</tspan><tspan class="cls-7" x="312.93" y="352.8">გ</tspan><tspan class="cls-13" x="320.54" y="352.8">ორი; </tspan><tspan class="cls-14" x="216.96" y="369.6">2</tspan><tspan x="223.5" y="369.6">1 - ვეძისი, ყ</tspan><tspan class="cls-4" x="304.06" y="369.6">ა</tspan><tspan class="cls-13" x="310.69" y="369.6">ზ</tspan><tspan class="cls-2" x="319.21" y="369.6">ბ</tspan><tspan class="cls-15" x="327.21" y="369.6">ე</tspan><tspan class="cls-7" x="334.85" y="369.6">გ</tspan><tspan x="342.47" y="369.6">ი, </tspan><tspan class="cls-7" x="357.18" y="369.6">გ</tspan><tspan x="364.8" y="369.6">ოთუა, სა</tspan><tspan class="cls-2" x="424.22" y="369.6">ბ</tspan><tspan x="432.22" y="369.6">ურთალო; </tspan><tspan x="216.96" y="386.4">22 - სა</tspan><tspan class="cls-2" x="258.97" y="386.4">ნ</tspan><tspan x="267.2" y="386.4">ზონა; </tspan><tspan class="cls-16" x="216.96" y="403.2">2</tspan><tspan x="223.76" y="403.2">3 - მთაწმინდა, სოლოლ</tspan><tspan class="cls-17" x="386.84" y="403.2">ა</tspan><tspan class="cls-15" x="393.33" y="403.2">კი; </tspan><tspan class="cls-18" x="216.96" y="420">2</tspan><tspan x="223.45" y="420">4 - თე</tspan><tspan class="cls-7" x="263.23" y="420">მ</tspan><tspan x="271.04" y="420">ქა; </tspan><tspan x="216.96" y="436.8">25 - წავკისი, შინდისი, ტაბახ</tspan><tspan class="cls-7" x="411.43" y="436.8">მ</tspan><tspan x="419.24" y="436.8">ელა; </tspan><tspan x="216.96" y="453.6">26 - წ</tspan><tspan class="cls-7" x="252.59" y="453.6">ყ</tspan><tspan class="cls-8" x="260.09" y="453.6">ნ</tspan><tspan class="cls-6" x="268.32" y="453.6">ეთი; </tspan><tspan class="cls-2" x="216.96" y="470.4">2</tspan><tspan x="223.69" y="470.4">7 - ვ</tspan><tspan class="cls-19" x="250.56" y="470.4">ა</tspan><tspan x="257.04" y="470.4">კე, ბ</tspan><tspan class="cls-7" x="287.07" y="470.4">ა</tspan><tspan x="293.97" y="470.4">გები; </tspan><tspan x="216.96" y="487.2">28 - ვა</tspan><tspan class="cls-9" x="259.36" y="487.2">რ</tspan><tspan x="269.57" y="487.2">კეთილი; </tspan><tspan class="cls-2" x="216.96" y="504">2</tspan><tspan x="223.69" y="504">9 - ვაჟა-ფ</tspan><tspan class="cls-2" x="290.62" y="504">შ</tspan><tspan class="cls-6" x="298.67" y="504">აველას კვარტლები; </tspan><tspan x="216.96" y="520.8">30 - ვ</tspan><tspan class="cls-9" x="252.36" y="520.8">ა</tspan><tspan x="258.98" y="520.8">ზი</tspan><tspan class="cls-2" x="275.22" y="520.8">ს</tspan><tspan class="cls-6" x="283.04" y="520.8">უბანი, VIII ლეგ. </tspan><tspan class="cls-14" x="216.96" y="537.6">3</tspan><tspan x="223.57" y="537.6">1 - ვერა; </tspan><tspan class="cls-2" x="216.96" y="554.4">3</tspan><tspan x="223.76" y="554.4">2 - </tspan><tspan class="cls-2" x="243.77" y="554.4">ზ</tspan><tspan x="252.15" y="554.4">ემო ავლაბარი, </tspan><tspan class="cls-7" x="359.36" y="554.4">მ</tspan><tspan x="367.17" y="554.4">ეტრო</tspan><tspan class="cls-20" x="406.44" y="554.4">მ</tspan><tspan class="cls-7" x="414.82" y="554.4">შე</tspan><tspan x="430.09" y="554.4">ნი; </tspan><tspan x="216.96" y="571.2">33 - </tspan><tspan class="cls-2" x="243.98" y="571.2">ზ</tspan><tspan class="cls-6" x="252.36" y="571.2">ემო ჩუ</tspan><tspan class="cls-2" x="298.41" y="571.2">ღ</tspan><tspan x="309.03" y="571.2">ურეთი; </tspan></tspan></text><text class="cls-21" transform="translate(118.11 756.67) scale(1.05 1)">წყარო: თბილისის შინა<tspan class="cls-22" x="103.79" y="0">მ</tspan><tspan x="108.85" y="0">ეურ</tspan><tspan class="cls-23" x="125.84" y="0">ნ</tspan><tspan class="cls-24" x="131.18" y="0">ეო</tspan><tspan class="cls-25" x="143.13" y="0">ბ</tspan><tspan x="148.31" y="0">ების სატრანსპორტო კვლევა, 2</tspan><tspan class="cls-26" x="287" y="0">0</tspan><tspan x="291.81" y="0">16; თბილისის </tspan><tspan class="cls-22" x="354.89" y="0">მ</tspan><tspan x="359.96" y="0">ერია</tspan></text><text class="cls-27" transform="translate(975.21 756.45) scale(1.05 1)"><tspan class="cls-28">შე</tspan><tspan x="9.79" y="0">ნი</tspan><tspan class="cls-28" x="20.16" y="0">შ</tspan><tspan x="25.22" y="0">ვნა: შინა</tspan><tspan class="cls-28" x="65.15" y="0">მ</tspan><tspan x="70.18" y="0">ე</tspan><tspan class="cls-28" x="75.08" y="0">უ</tspan><tspan x="79.84" y="0">რ</tspan><tspan class="cls-23" x="85.08" y="0">ნ</tspan><tspan x="90.37" y="0">ეო</tspan><tspan class="cls-25" x="102.22" y="0">ბ</tspan><tspan class="cls-29" x="107.38" y="0">ების სატრანსპორტო კვლევის მი</tspan><tspan class="cls-28" x="247.31" y="0">ე</tspan><tspan x="252.04" y="0">რ დაყოფილი მ</tspan><tspan class="cls-30" x="311.25" y="0">იკ</tspan><tspan x="320.49" y="0">რ</tspan><tspan class="cls-23" x="325.73" y="0">ო</tspan><tspan class="cls-31" x="332.59" y="0">ზო</tspan><tspan class="cls-32" x="345.02" y="0">ნ</tspan><tspan class="cls-29" x="350.31" y="0">ების ს</tspan><tspan class="cls-33" x="378.12" y="0">ა</tspan><tspan class="cls-31" x="382.52" y="0">ზღვრები არ ემთ</tspan><tspan class="cls-23" x="452.56" y="0">ხ</tspan><tspan x="457.63" y="0">ვევა უბნის ს</tspan><tspan class="cls-34" x="512.6" y="0">ა</tspan><tspan x="517.01" y="0">ზღვრებს</tspan></text><path class="cls-35" d="M43.47,751.92c-1.56,1.75-3.16,3.6-4.8,5.53s-3.24,3.87-4.8,5.8-3.06,3.81-4.5,5.63-2.76,3.49-3.95,5a7,7,0,0,0,1.53.18c.64,0,1.52,0,2.64,0a30.57,30.57,0,0,0,4.21-.29,14,14,0,0,0,3.79-1.06,9.77,9.77,0,0,0,3.09-2.15,9.52,9.52,0,0,0,2.12-3.49h.75l-2.83,8.07c-2.18-.05-4.36-.08-6.53-.11s-4.35,0-6.53,0c-1.15,0-2.28,0-3.41,0s-2.26.06-3.41.11l-.29-.43,18.12-22.2h-5a20.07,20.07,0,0,0-3.28.27,10.71,10.71,0,0,0-3,.95,7.23,7.23,0,0,0-2.35,1.86,6.32,6.32,0,0,0-1.3,3h-.52a7.94,7.94,0,0,1,0-1.29c0-.44.05-.86.05-1.27,0-.76,0-1.53.11-2.28s.18-1.52.3-2.29l2.44.07,2.53.05c.83,0,1.63,0,2.4,0H33.2q2.56,0,5,0c1.62,0,3.29-.06,5-.11Z" transform="translate(-20.55 -18.96)"/><path class="cls-35" d="M49.8,766.41a2.05,2.05,0,0,1,1.47.58,1.88,1.88,0,0,1,.62,1.44,1.91,1.91,0,0,1-.62,1.44,2.18,2.18,0,0,1-2.94,0,1.9,1.9,0,0,1-.61-1.44,1.87,1.87,0,0,1,.61-1.44A2.05,2.05,0,0,1,49.8,766.41Z" transform="translate(-20.55 -18.96)"/><path class="cls-35" d="M56.46,764.53a4.83,4.83,0,0,1,.84-1.78,3.74,3.74,0,0,1,1.25-1,4.65,4.65,0,0,1,1.6-.43,18.92,18.92,0,0,1,1.9-.09,8.79,8.79,0,0,1,1.91.2,5.17,5.17,0,0,1,1.71.66,3.68,3.68,0,0,1,1.23,1.25,3.58,3.58,0,0,1,.47,1.89v6.67a2,2,0,0,0,.37,1.2,1.32,1.32,0,0,0,1.15.53,2.22,2.22,0,0,0,1.33-.42c.38-.27.75-.54,1.09-.81l.38.4-.88.84a13.67,13.67,0,0,1-1.06.94,7.71,7.71,0,0,1-1.13.76,2.49,2.49,0,0,1-1.14.3,1.51,1.51,0,0,1-.78-.23,5.25,5.25,0,0,1-.8-.56,7.83,7.83,0,0,1-.73-.68l-.59-.62A18.27,18.27,0,0,1,61.9,775a7.3,7.3,0,0,1-2.91.64,4.46,4.46,0,0,1-1.5-.25,4.06,4.06,0,0,1-1.29-.72,3.48,3.48,0,0,1-.89-1.12,3.19,3.19,0,0,1-.34-1.47,3.23,3.23,0,0,1,.86-2.36,5.61,5.61,0,0,1,2.22-1.36,13.4,13.4,0,0,1,3.08-.63c1.16-.1,2.32-.17,3.48-.19v-2.74a2.54,2.54,0,0,0-.85-2.06A3.24,3.24,0,0,0,61.6,762a1.71,1.71,0,0,0-1.53.94,4.06,4.06,0,0,0-.55,2.12Zm8.08,4.4a9.56,9.56,0,0,0-2.49-.32,6.18,6.18,0,0,0-1.42.16,3.94,3.94,0,0,0-1.26.52,3,3,0,0,0-.92.92,2.51,2.51,0,0,0-.35,1.35,1.87,1.87,0,0,0,.88,1.75,3.7,3.7,0,0,0,2,.52,4.93,4.93,0,0,0,2.18-.47,9.6,9.6,0,0,0,1.43-.79Z" transform="translate(-20.55 -18.96)"/><path class="cls-35" d="M71.2,774.77a8.19,8.19,0,0,0,2.4-1.1A18.16,18.16,0,0,0,75.69,772c.65-.6,1.29-1.22,1.91-1.86a24.93,24.93,0,0,1,1.94-1.78c-.57-.6-1.13-1.24-1.68-1.93a22.81,22.81,0,0,0-1.73-1.94,10,10,0,0,0-2-1.59,6.31,6.31,0,0,0-2.47-.85v-.43c.79.07,1.59.12,2.38.13l2.38,0,2.07,0c.68,0,1.37-.06,2.06-.13v.47a3.63,3.63,0,0,0-1,.36.87.87,0,0,0-.56.79,1.8,1.8,0,0,0,.28.81,10.4,10.4,0,0,0,.67,1.09,12.39,12.39,0,0,0,.8,1,5.16,5.16,0,0,0,.67.7c.24-.24.52-.49.82-.75s.57-.54.83-.83a5.26,5.26,0,0,0,.67-.92,2,2,0,0,0,.28-1,.9.9,0,0,0-.5-.83,4.72,4.72,0,0,0-1-.43v-.47c.65.07,1.3.12,2,.13l1.95,0,1.75,0a16.55,16.55,0,0,0,1.75-.13v.43a7.07,7.07,0,0,0-2.29.83,13.35,13.35,0,0,0-2,1.43c-.63.54-1.25,1.1-1.84,1.69s-1.19,1.14-1.79,1.64c.47.55,1,1.21,1.55,2a23.56,23.56,0,0,0,1.84,2.2,13,13,0,0,0,2.23,1.89,6.34,6.34,0,0,0,2.72,1v.43c-.79-.05-1.58-.08-2.36-.11s-1.57,0-2.37,0-1.63,0-2.45,0-1.64.06-2.46.11v-.43a3.39,3.39,0,0,0,.67-.07,3,3,0,0,0,.71-.24,2.14,2.14,0,0,0,.56-.39.84.84,0,0,0,.22-.56,2.39,2.39,0,0,0-.32-1.1,8.77,8.77,0,0,0-.76-1.19c-.3-.4-.6-.78-.91-1.15s-.57-.71-.77-1l-1,.88c-.41.37-.81.77-1.21,1.19a8.41,8.41,0,0,0-1,1.28,2.17,2.17,0,0,0-.43,1.19.87.87,0,0,0,.2.56,1.6,1.6,0,0,0,.49.36,2.72,2.72,0,0,0,.61.18,4.7,4.7,0,0,0,.63,0v.43c-.59-.05-1.18-.08-1.77-.11s-1.17,0-1.76,0-1.24,0-1.85,0-1.22.06-1.84.11Z" transform="translate(-20.55 -18.96)"/><path class="cls-35" d="M94,766.08q0-.86-.06-1.53a2.59,2.59,0,0,0-.33-1.11,2.11,2.11,0,0,0-.84-.74,4.22,4.22,0,0,0-1.53-.4v-.5l5.66-.36V772a5.3,5.3,0,0,0,.15,1.42,1.51,1.51,0,0,0,.5.8,2.3,2.3,0,0,0,.91.38,9.68,9.68,0,0,0,1.38.14v.43c-.87-.05-1.74-.08-2.62-.11l-2.63,0c-.57,0-1.13,0-1.67,0s-1.11.06-1.68.11v-.43a8.18,8.18,0,0,0,1.27-.14,2,2,0,0,0,.85-.38,1.5,1.5,0,0,0,.49-.8A5.3,5.3,0,0,0,94,772Z" transform="translate(-20.55 -18.96)"/><path class="cls-35" d="M101.72,770.48h.52a14.6,14.6,0,0,0,1.17,1.48,10.44,10.44,0,0,0,1.44,1.3,7.82,7.82,0,0,0,1.67.93,5.06,5.06,0,0,0,1.9.36,5.69,5.69,0,0,0,1-.09,3.25,3.25,0,0,0,.91-.3,2.09,2.09,0,0,0,.67-.58,1.52,1.52,0,0,0,.26-.9,1.85,1.85,0,0,0-.69-1.48,7,7,0,0,0-1.69-1,21.74,21.74,0,0,0-2.22-.81,13.42,13.42,0,0,1-2.21-.9,6,6,0,0,1-1.7-1.28,2.8,2.8,0,0,1-.68-1.94,3.7,3.7,0,0,1,1.24-3,4.76,4.76,0,0,1,3.15-1,10.33,10.33,0,0,1,2.73.36,13.05,13.05,0,0,0,2.74.43l.22,3.82h-.48a7.49,7.49,0,0,0-.93-1.31,7,7,0,0,0-1.25-1.12,6.52,6.52,0,0,0-1.47-.79,4.22,4.22,0,0,0-1.6-.31,3.41,3.41,0,0,0-1.67.4,1.61,1.61,0,0,0-.06,2.68,8.06,8.06,0,0,0,1.69.9q1,.42,2.22.81a13.5,13.5,0,0,1,2.21,1,6.06,6.06,0,0,1,1.7,1.37,3,3,0,0,1,.68,2,4.48,4.48,0,0,1-.42,2.07,3.31,3.31,0,0,1-1.18,1.28,5.25,5.25,0,0,1-1.73.67,10.72,10.72,0,0,1-2.1.19,11.77,11.77,0,0,1-1.71-.12c-.55-.09-1.06-.19-1.55-.31l-1.35-.32c-.43-.1-.8-.17-1.12-.22Z" transform="translate(-20.55 -18.96)"/><rect class="cls-36" x="779.97" y="72.1" width="202.66" height="19.36"/><line class="cls-37" x1="875.32" y1="62.72" x2="814.18" y2="62.72"/><line class="cls-38" x1="875.32" y1="62.72" x2="819.83" y2="62.72"/><polygon class="cls-39" points="814.18 62.72 822.14 59.46 820.25 62.72 822.14 65.97 814.18 62.72"/><text class="cls-40" transform="matrix(1.05, 0, 0, 1, 796.54, 47.99)">ავტომობილი</text><line class="cls-37" x1="875.32" y1="100.85" x2="936.47" y2="100.85"/><line class="cls-38" x1="875.32" y1="100.85" x2="930.82" y2="100.85"/><polygon class="cls-39" points="936.47 100.85 928.51 104.11 930.4 100.85 928.51 97.6 936.47 100.85"/><text class="cls-40" transform="matrix(1.05, 0, 0, 1, 873.24, 121.49)">ს<tspan class="cls-41" x="6.53" y="0">ა</tspan><tspan x="11.96" y="0">ზ. ტრანსპორტი</tspan></text><ellipse class="cls-37" cx="816.36" cy="168.98" rx="11.59" ry="11.17"/><ellipse class="cls-42" cx="816.36" cy="168.98" rx="11.59" ry="11.17"/><ellipse class="cls-43" cx="816.1" cy="169.28" rx="7.64" ry="7.32"/><ellipse class="cls-37" cx="816.99" cy="169.55" rx="4.09" ry="3.65"/><ellipse class="cls-44" cx="816.1" cy="169.28" rx="7.64" ry="7.32"/><ellipse class="cls-45" cx="816.99" cy="169.55" rx="4.09" ry="3.65"/><ellipse class="cls-37" cx="809.61" cy="165.61" rx="11.59" ry="11.17"/><ellipse class="cls-46" cx="809.61" cy="165.61" rx="11.59" ry="11.17"/><ellipse class="cls-43" cx="809.36" cy="165.91" rx="7.64" ry="7.32"/><ellipse class="cls-37" cx="810.25" cy="166.18" rx="4.09" ry="3.65"/><ellipse class="cls-47" cx="809.36" cy="165.91" rx="7.64" ry="7.32"/><ellipse class="cls-45" cx="810.25" cy="166.18" rx="4.09" ry="3.65"/><ellipse class="cls-37" cx="816.99" cy="154.44" rx="11.59" ry="11.17"/><ellipse class="cls-48" cx="816.99" cy="154.44" rx="11.59" ry="11.17"/><ellipse class="cls-43" cx="816.74" cy="154.74" rx="7.64" ry="7.32"/><ellipse class="cls-37" cx="817.63" cy="155.01" rx="4.09" ry="3.65"/><ellipse class="cls-49" cx="816.74" cy="154.74" rx="7.64" ry="7.32"/><ellipse class="cls-42" cx="817.63" cy="155.01" rx="4.09" ry="3.65"/><ellipse class="cls-37" cx="815.69" cy="187.83" rx="11.67" ry="11.09" transform="translate(-32.23 42.08) rotate(-4.26)"/><ellipse class="cls-50" cx="815.69" cy="187.83" rx="11.67" ry="11.09" transform="translate(-32.23 42.08) rotate(-4.26)"/><ellipse class="cls-43" cx="815.3" cy="187.75" rx="7.65" ry="7.3" transform="translate(-24.89 1.03) rotate(-1.4)"/><ellipse class="cls-37" cx="815.47" cy="188.63" rx="3.75" ry="3.97" transform="translate(119.06 663.41) rotate(-49.17)"/><ellipse class="cls-47" cx="815.3" cy="187.75" rx="7.65" ry="7.3" transform="translate(-24.89 1.03) rotate(-1.4)"/><ellipse class="cls-45" cx="815.47" cy="188.63" rx="3.75" ry="3.97" transform="translate(119.06 663.41) rotate(-49.17)"/><ellipse class="cls-37" cx="815.61" cy="180.55" rx="11.67" ry="11.09" transform="matrix(1, -0.07, 0.07, 1, -31.7, 42.05)"/><ellipse class="cls-50" cx="815.61" cy="180.55" rx="11.67" ry="11.09" transform="matrix(1, -0.07, 0.07, 1, -31.7, 42.05)"/><ellipse class="cls-43" cx="815.22" cy="180.48" rx="7.65" ry="7.3" transform="translate(-24.72 1.03) rotate(-1.4)"/><ellipse class="cls-37" cx="815.38" cy="181.36" rx="3.75" ry="3.97" transform="translate(124.53 660.83) rotate(-49.17)"/><ellipse class="cls-47" cx="815.22" cy="180.48" rx="7.65" ry="7.3" transform="translate(-24.72 1.03) rotate(-1.4)"/><ellipse class="cls-46" cx="815.38" cy="181.36" rx="3.75" ry="3.97" transform="translate(124.53 660.83) rotate(-49.17)"/><ellipse class="cls-37" cx="829.4" cy="181.48" rx="11.67" ry="11.09" transform="translate(-31.73 43.08) rotate(-4.26)"/><ellipse class="cls-44" cx="829.4" cy="181.48" rx="11.67" ry="11.09" transform="translate(-31.73 43.08) rotate(-4.26)"/><ellipse class="cls-43" cx="829.01" cy="181.41" rx="7.65" ry="7.3" transform="translate(-24.74 1.36) rotate(-1.4)"/><ellipse class="cls-37" cx="829.18" cy="182.29" rx="3.75" ry="3.97" transform="translate(128.61 671.59) rotate(-49.17)"/><ellipse class="cls-49" cx="829.01" cy="181.41" rx="7.65" ry="7.3" transform="translate(-24.74 1.36) rotate(-1.4)"/><ellipse class="cls-44" cx="829.18" cy="182.29" rx="3.75" ry="3.97" transform="translate(128.61 671.59) rotate(-49.17)"/><text class="cls-40" transform="matrix(1.05, 0, 0, 1, 837, 163.36)">არასრული ინფორ<tspan class="cls-51" x="103.88" y="0">მ</tspan><tspan x="110.44" y="0">აცია</tspan></text><text class="cls-52" transform="matrix(1.05, 0, 0, 1, 1180.63, 15.27)"><tspan class="cls-53">გ</tspan><tspan class="cls-54" x="9.85" y="0">ანხორციელე</tspan><tspan class="cls-55" x="128.54" y="0">ბ</tspan><tspan class="cls-56" x="138.87" y="0">ული </tspan><tspan class="cls-57" x="182.48" y="0">მგ</tspan><tspan class="cls-54" x="201.72" y="0">ზავრო</tspan><tspan class="cls-55" x="260.19" y="0">ბ</tspan><tspan x="270.52" y="0">ები</tspan><tspan class="cls-58"><tspan class="cls-53" x="-19.99" y="21.6">გ</tspan><tspan class="cls-56" x="-10.23" y="21.6">ადაა</tspan><tspan class="cls-57" x="28.09" y="21.6">დ</tspan><tspan class="cls-53" x="37.34" y="21.6">გ</tspan><tspan x="47.1" y="21.6">ილების საშუალე</tspan><tspan class="cls-55" x="181.57" y="21.6">ბ</tspan><tspan x="191.8" y="21.6">ების მი</tspan><tspan class="cls-55" x="256.9" y="21.6">ხ</tspan><tspan x="266.96" y="21.6">ედვით</tspan></tspan></text><text class="cls-59" transform="matrix(1.05, 0, 0, 1, 1142.86, 70.33)">ვარდისფ<tspan class="cls-60" x="60.55" y="0">ე</tspan><tspan x="68.31" y="0">რი ტონალობა მიუთითებს ავტომობილების </tspan><tspan class="cls-61" x="106.35" y="18">მ</tspan><tspan class="cls-62" x="114.72" y="18">აღალ </tspan><tspan class="cls-61" x="154" y="18">ხ</tspan><tspan class="cls-62" x="162.31" y="18">ვედრით წი</tspan><tspan class="cls-63" x="235.14" y="18">ლზ</tspan><tspan x="252.24" y="18">ე, </tspan><tspan class="cls-63" x="5.65" y="36">ლ</tspan><tspan class="cls-60" x="13.9" y="36">უ</tspan><tspan x="21.56" y="36">რჯი ტონალობა კი ს</tspan><tspan class="cls-64" x="157.34" y="36">ა</tspan><tspan x="164.43" y="36">ზ</tspan><tspan class="cls-65" x="173.43" y="36">ოგ</tspan><tspan x="192.48" y="36">ადოებრივ ტრანსპორ</tspan><tspan class="cls-66" x="337.28" y="36">ტ</tspan><tspan class="cls-61" x="347.19" y="36">ზ</tspan><tspan class="cls-62" x="356.04" y="36">ე </tspan><tspan class="cls-61" x="96.82" y="54">მ</tspan><tspan class="cls-62" x="105.19" y="54">აღალ დამ</tspan><tspan class="cls-67" x="168.78" y="54">ო</tspan><tspan x="179.65" y="54">კიდე</tspan><tspan class="cls-61" x="211.72" y="54">ბ</tspan><tspan x="220.11" y="54">ულებ</tspan><tspan class="cls-66" x="253.06" y="54">ა</tspan><tspan class="cls-61" x="260.16" y="54">ზ</tspan><tspan class="cls-62" x="269" y="54">ე</tspan></text><polygon class="cls-68" points="498.51 483.78 498.49 483.78 498.51 482.97 498.52 482.46 498.44 481.99 498.39 481.65 497.84 477.87 497.6 476.01 497.27 474.95 496.95 474.26 496.83 474.02 496.69 473.8 496.38 473.17 496 472.57 495.56 472.02 495.07 471.51 494.53 471.06 494.15 470.8 492.76 470.03 488.75 467.92 488.74 467.94 488.36 467.73 488.36 467.73 484.68 465.9 481.3 464.43 479.32 463.87 478.05 463.51 478.06 463.52 477.46 463.51 475.62 462.8 473.42 462.01 471.67 461.26 467.98 458.89 466.45 457.37 466.47 457.36 466.46 457.35 465.32 455.12 464.74 453.8 463.51 451.51 461.86 448.54 461.82 448.47 460.27 445.9 458.91 444.33 457.97 443.41 456.97 442.27 456.22 441.09 455.57 439.76 454.57 437.2 454.38 436.91 453.36 434.31 453.36 434.3 453.35 434.28 453.32 433.93 453.25 433.16 453.26 433.09 453.26 433.09 453.1 431.24 453.1 431.24 452.93 428.85 452.12 424.92 451.66 423.41 450.97 421.87 449.62 419.19 449.24 418.44 449.26 418.42 449.15 418.2 448.57 417.07 447.49 414.84 445.89 411.7 444.63 409.15 442.19 404.43 441.17 402.57 440.93 402.12 440.45 401.3 439.97 400.44 439.44 399.02 438.55 396.58 438.02 395 437.03 391.28 436.54 390.09 436.5 390.11 436.01 389.14 435 387.35 434.58 386.76 433.43 385.15 431.01 382.39 427.77 379.48 424.74 376.5 422.64 374.18 421.25 372.17 420.12 370.11 418.92 367.12 417.52 363.8 416.66 361.38 415.6 358.36 413.89 353.5 412.03 345.21 411.6 342.4 411.59 342.4 411.21 340.5 410.92 339.19 410.53 337.52 410.06 335.48 409.81 334.21 409.74 333.67 409.67 333.1 409.61 332.2 409.55 330.45 409.62 327.98 409.89 325.64 410.35 323.44 410.52 322.82 411.37 320.38 412.19 318.43 413.42 316.21 414.64 314.25 415.37 313.05 417.02 310.31 419.06 306.99 420.37 304.8 421.72 302.69 421.79 302.6 422.43 301.76 422.88 301.29 425.26 298.81 426.81 297.55 426.81 297.54 428.1 296.44 429.17 294.99 430.33 293.53 431.19 291.7 432.22 289.65 432.9 288.01 433.7 285.54 434.16 283.17 434.98 279.56 436.04 275.58 436.27 274.85 437.14 272.33 437.67 269.3 437.56 266.77 437.44 265.82 437.43 265.3 437.63 263.81 437.76 261.84 437.81 260.23 437.91 258.23 437.26 255.68 437.21 255.6 436.98 255.27 436.77 254.93 436.59 254.58 436.42 254.21 436.28 253.84 436.15 253.46 436.05 253.07 435.97 252.67 435.95 252.51 435.91 252.43 435.56 251.62 435.23 250.81 434.92 249.98 434.63 249.14 434.36 248.3 434.11 247.45 433.89 246.59 433.69 245.73 433.51 244.86 433.35 243.99 433.31 243.76 433.3 243.66 433.26 243.09 433.23 242.51 433.23 241.94 433.26 241.36 433.3 240.78 433.37 240.21 433.46 239.64 433.57 239.08 433.71 238.52 433.86 237.97 434.04 237.42 434.24 236.88 434.46 236.35 434.7 235.83 434.96 235.32 435.03 235.2 435.13 235.03 435.44 234.5 435.77 233.98 436.13 233.48 436.49 232.99 436.88 232.52 437.29 232.06 437.71 231.62 438.14 231.2 438.59 230.79 439.06 230.41 439.54 230.04 439.54 230.04 439.6 230.01 439.87 229.85 440.13 229.68 440.38 229.48 440.62 229.26 440.83 229.03 441.04 228.78 441.22 228.52 441.38 228.24 441.53 227.95 441.65 227.65 441.75 227.34 441.76 227.33 442.66 224.97 444.06 221.33 445.48 217.71 446.11 216.12 446.16 215.98 446.28 215.67 446.43 215.37 446.59 215.08 446.77 214.81 446.98 214.54 447.19 214.3 447.25 214.24 447.46 214.05 447.65 213.84 447.83 213.61 447.99 213.37 448.13 213.11 448.25 212.85 448.35 212.57 448.43 212.29 448.48 212 448.52 211.71 448.53 211.41 448.52 211.12 448.51 211.07 448.5 210.87 448.47 210.64 448.41 210.41 448.33 210.2 448.23 209.99 448.11 209.8 447.97 209.62 447.83 209.47 447.79 209.43 447.68 209.29 447.58 209.14 447.5 208.97 447.44 208.8 447.41 208.62 447.4 208.44 447.41 208.25 447.44 208.07 447.5 207.9 447.54 207.81 447.52 207.5 447.46 206.85 447.38 206.21 447.28 205.56 447.16 204.92 447.01 204.29 446.88 203.78 446.84 203.68 446.72 203.29 446.62 202.9 446.54 202.51 446.48 202.11 446.44 201.71 446.43 201.3 446.44 200.9 446.48 200.5 446.54 200.1 446.59 199.83 446.6 199.65 446.61 199.06 446.6 198.47 446.56 197.88 446.5 197.29 446.48 197.09 446.52 196.9 446.68 196.25 446.86 195.6 447.06 194.95 447.28 194.32 447.53 193.69 447.79 193.08 448.07 192.47 448.38 191.87 448.7 191.29 449.05 190.72 449.27 190.37 449.28 190.37 449.3 190.34 449.33 190.25 449.42 189.94 449.44 189.86 449.47 189.87 449.5 189.77 449.48 189.76 449.61 189.32 449.63 189.25 449.9 189.29 449.63 189.25 449.63 189.25 449.95 188.23 450.72 185.8 451.47 183.36 452.19 180.91 452.9 178.45 453.58 175.99 454.24 173.52 454.88 171.05 455.3 169.39 455.39 169.01 455.98 166.56 456.02 166.43 456.21 165.74 456.38 165.06 456.52 164.37 456.64 163.71 456.65 163.66 456.65 163.66 456.75 162.96 456.75 162.96 456.83 162.26 456.83 162.26 456.89 161.55 456.92 160.84 456.93 160.13 456.92 159.42 456.92 159.42 456.89 158.71 456.89 158.71 456.83 158.01 456.83 158.01 456.81 157.8 456.71 157.5 456.52 157 456.31 156.5 456.07 156.02 455.82 155.55 455.55 155.09 455.26 154.64 454.95 154.2 454.62 153.78 454.27 153.38 454.2 153.3 454.19 153.29 453.66 152.68 453.15 152.05 452.65 151.4 452.18 150.74 451.72 150.07 451.28 149.38 450.86 148.68 450.45 147.97 450.07 147.24 449.71 146.51 449.37 145.76 449.05 145 448.75 144.24 448.47 143.47 448.21 142.68 447.97 141.89 447.9 141.64 447.83 141.3 447.69 140.62 447.58 139.93 447.49 139.25 447.42 138.56 447.37 137.86 447.35 137.17 447.35 136.47 447.37 135.78 447.42 135.09 447.49 134.4 447.58 133.71 447.69 133.02 447.83 132.34 447.99 131.67 448.17 131 448.37 130.34 448.59 129.69 448.69 129.41 448.7 129.36 449.01 128.29 449.29 127.21 449.54 126.12 449.78 125.03 449.99 123.93 450.19 122.83 450.35 121.72 450.5 120.62 450.62 119.5 450.73 118.39 450.81 117.27 450.86 116.29 450.33 111.68 449.48 108.03 449.41 107.66 449.29 107.05 449.26 106.91 449.25 106.84 449.22 106.7 449 105.72 448.77 104.75 448.51 103.79 448.23 102.83 447.93 101.88 447.6 100.94 447.26 100 446.89 99.08 446.5 98.16 446.1 97.25 445.93 96.91 445.66 96.36 445.22 95.47 444.75 94.6 444.75 94.6 444.51 94.17 441.07 88.22 436.98 81.16 436.9 81.02 436.73 80.73 436.63 80.58 436.62 80.57 436.62 80.57 436.39 80.23 436.36 80.18 436.04 79.69 436.04 79.69 435.32 78.58 435.32 78.57 435.26 78.48 434.62 77.44 434 76.4 433.55 75.61 432.9 74.45 432.71 74.1 432.66 74.03 432.35 73.66 432.03 73.29 431.69 72.95 431.34 72.62 430.97 72.31 430.59 72.02 430.19 71.75 429.79 71.5 429.37 71.27 428.94 71.06 428.5 70.88 428.39 70.83 428.06 70.71 427.61 70.57 427.15 70.45 427.08 70.44 426.89 70.38 426.25 70.2 425.6 70.05 424.95 69.92 424.29 69.82 423.63 69.73 422.97 69.67 422.31 69.64 422 69.63 421.83 69.6 420.77 69.44 419.88 69.33 419.82 69.32 419.76 69.33 419.72 69.34 419.71 69.33 419.29 69.59 418.76 70.08 418.32 70.63 418 70.76 417.47 70.65 417.18 70.45 415.2 68.62 415.09 68.58 414.96 68.46 414.53 68.06 414.09 67.67 413.63 67.31 413.15 66.96 412.67 66.64 412.17 66.33 411.66 66.05 411.14 65.78 410.61 65.54 410.08 65.32 410.02 65.3 409.75 65.2 409.44 65.09 409.11 65.02 408.78 64.96 408.44 64.93 408.11 64.93 407.77 64.94 407.44 64.99 407.11 65.05 406.79 65.14 406.75 65.16 406.6 65.25 406.14 65.26 404.63 65.43 403.26 65.66 401.85 65.93 399.8 66.5 397.27 67.25 396.51 67.61 396.06 67.91 394.7 68.86 393.48 69.86 392.12 71.02 391.93 69.54 391.89 69.19 393.34 68.22 395.21 66.19 397.13 65.44 397.72 65.33 398.02 65.27 398.16 65.24 398.2 65.23 398.55 65.16 400.67 64.14 402.45 63.61 403.69 63.15 406.46 62.83 406.66 62.84 407.07 62.79 407.49 62.78 407.91 62.78 408.33 62.81 408.75 62.87 409.16 62.94 409.57 63.04 409.97 63.17 410.28 63.28 410.44 63.38 410.83 63.62 411.23 63.84 411.64 64.04 412.06 64.22 412.49 64.37 412.93 64.5 413.37 64.61 413.71 64.68 414.08 64.84 414.73 65.16 415.36 65.5 415.99 65.86 416.6 66.24 417.1 66.57 417.22 66.67 417.49 66.9 417.78 67.11 418.08 67.3 418.4 67.46 418.72 67.61 419.03 67.72 419.19 67.74 419.51 67.76 419.83 67.76 420.16 67.74 420.48 67.69 420.8 67.62 421.11 67.53 421.41 67.41 421.45 67.4 421.67 67.28 421.93 67.16 422.2 67.07 422.47 67 422.75 66.95 423.03 66.93 423.31 66.93 423.59 66.95 423.87 67 424.14 67.07 424.28 67.11 424.42 67.14 424.86 67.22 425.31 67.28 425.76 67.32 426.21 67.33 426.66 67.32 427.11 67.28 427.56 67.22 428 67.14 428.34 67.06 428.49 67 428.67 66.95 428.85 66.93 429.03 66.93 429.21 66.95 429.38 67 429.52 67.06 429.58 67.26 429.67 67.54 429.78 67.8 429.91 68.05 430.06 68.29 430.23 68.52 430.42 68.73 430.63 68.92 430.85 69.09 431.02 69.21 431.56 69.64 432.13 70.12 432.68 70.62 433.22 71.14 433.74 71.67 434.25 72.22 434.74 72.79 435.21 73.37 435.66 73.97 436.1 74.58 436.52 75.2 436.92 75.84 437.29 76.5 437.65 77.16 437.78 77.41 437.87 77.54 438.2 77.99 438.55 78.43 438.91 78.86 439.3 79.27 439.69 79.66 440.02 79.95 440.26 80.35 440.53 80.74 440.82 81.11 441.12 81.47 441.44 81.81 441.78 82.14 442.12 82.44 443.11 83.42 443.4 83.67 444.85 84.89 445.63 85.56 445.83 85.77 446.27 86.29 446.7 86.83 447.11 87.38 447.5 87.94 447.88 88.52 448.23 89.11 448.23 89.12 448.33 89.28 448.33 89.29 448.33 89.29 448.34 89.3 448.57 89.72 448.88 90.33 449.18 90.96 449.33 91.3 449.5 91.61 450.22 92.95 450.93 94.3 451.61 95.66 451.93 96.33 452.28 97.04 452.92 98.42 453.55 99.82 454.15 101.22 454.73 102.64 455.3 104.06 455.84 105.5 456 105.94 456.18 106.34 456.52 107.15 456.84 107.97 457.14 108.8 457.42 109.64 457.67 110.48 457.91 111.33 458.12 112.19 458.24 112.71 458.27 112.83 458.41 113.47 458.54 114.12 458.55 114.19 458.59 114.47 458.64 114.78 458.72 115.43 458.77 116.09 458.81 116.75 458.81 116.87 458.81 117.09 458.8 117.69 458.77 118.29 458.71 118.89 458.63 119.48 458.53 120.07 458.41 120.66 458.26 121.24 458.09 121.82 457.9 122.38 457.69 122.94 457.69 122.96 457.46 123.49 457.33 123.78 457.26 123.94 457.07 124.33 456.87 124.7 456.64 125.06 456.4 125.41 456.13 125.75 456.11 125.78 455.86 126.06 455.56 126.36 455.25 126.65 454.98 126.87 454.86 126.97 454.28 127.43 453.74 127.85 453.69 127.88 453.46 128.06 453.23 128.27 453.03 128.49 452.84 128.73 452.66 128.98 452.51 129.24 452.38 129.52 452.27 129.81 452.18 130.1 452.15 130.2 452.15 130.2 451.97 130.86 451.81 131.53 451.68 132.2 451.56 132.87 451.47 133.55 451.4 134.24 451.36 134.92 451.34 135.61 451.34 136.29 451.35 136.81 451.39 137.2 451.48 137.86 451.6 138.52 451.73 139.17 451.89 139.82 452.07 140.46 452.27 141.09 452.49 141.72 452.73 142.34 453 142.94 453.28 143.54 453.59 144.13 453.79 144.49 454.08 144.99 454.51 145.69 454.96 146.37 455.42 147.04 455.91 147.69 456.41 148.33 456.93 148.95 457.47 149.56 458.02 150.15 458.59 150.72 458.62 150.75 458.72 150.83 459.11 151.14 459.48 151.46 459.83 151.81 460.17 152.17 460.5 152.54 460.8 152.94 461.09 153.34 461.36 153.76 461.5 153.99 461.73 154.49 462 155.03 462.29 155.56 462.56 156.01 462.62 156.13 462.74 156.41 462.84 156.69 462.92 156.99 462.98 157.29 463.01 157.59 463.03 157.9 463.01 158.2 462.98 158.51 462.95 158.67 462.79 159.69 462.63 160.61 462.6 160.74 462.39 161.82 462.15 162.88 461.9 163.95 461.62 165 461.41 165.75 461.12 166.78 460.8 167.86 460.45 168.93 460.09 170 459.7 171.05 459.29 172.1 459.1 172.57 458.93 173.14 458.77 173.76 458.64 174.39 458.52 175.02 458.43 175.65 458.42 175.75 458.41 175.93 458.43 176.15 458.46 176.36 458.52 176.57 458.6 176.77 458.7 176.97 458.74 177.03 458.76 177.11 458.81 177.46 458.85 177.81 458.86 178.16 458.85 178.51 458.81 178.85 458.76 179.19 458.75 179.91 458.72 181.09 458.66 182.28 458.58 183.46 458.48 184.64 458.35 185.81 458.33 185.99 458.25 186.39 458.13 186.9 457.98 187.4 457.82 187.9 457.63 188.39 457.42 188.87 457.19 189.33 456.94 189.79 456.67 190.23 456.61 190.32 456.61 190.32 456.57 190.39 456.57 190.39 456.49 190.38 456.57 190.39 456.33 190.76 456.32 190.78 456.3 190.77 456.17 190.97 456.19 190.97 455.97 191.31 455.92 191.3 455.91 191.33 455.89 191.41 455.9 191.41 455.85 191.53 455.71 191.86 455.6 192.2 455.51 192.55 455.45 192.9 455.4 193.26 455.38 193.62 455.38 193.97 455.38 194.04 455.38 194.53 455.39 195.44 455.42 196.35 455.48 197.26 455.56 198.17 455.63 198.85 455.63 199.03 455.59 199.6 455.54 200.16 455.46 200.72 455.36 201.28 455.23 201.83 455.09 202.38 454.92 202.92 454.73 203.45 454.52 203.97 454.43 204.18 454.32 204.54 454.03 205.55 453.76 206.57 453.51 207.59 453.29 208.61 453.09 209.64 452.91 210.68 452.8 211.34 452.81 211.45 452.79 211.74 452.76 212.02 452.7 212.29 452.62 212.56 452.52 212.82 452.4 213.08 452.26 213.32 452.1 213.54 451.96 213.71 451.86 213.86 451.73 214.07 451.62 214.3 451.53 214.53 451.46 214.78 451.42 215.03 451.4 215.28 451.4 215.53 451.4 215.65 451.4 215.7 451.39 216.17 451.36 216.63 451.3 217.09 451.22 217.54 451.12 217.99 450.99 218.43 450.85 218.87 450.68 219.3 450.68 219.31 450.56 219.64 450.31 220.34 450.03 221.04 449.73 221.72 449.41 222.4 449.07 223.06 448.71 223.71 448.33 224.35 447.93 224.98 447.9 225.03 447.89 225.03 447.16 225.74 446.41 226.43 445.64 227.1 444.86 227.75 444.07 228.38 443.87 228.54 443.58 228.68 443.29 228.84 443.01 229.02 442.75 229.22 442.5 229.44 442.26 229.68 442.04 229.94 441.84 230.21 441.79 230.27 441.75 230.33 441.34 230.96 440.91 231.56 440.45 232.16 439.99 232.73 439.5 233.3 439 233.84 438.77 234.08 438.7 234.18 438.4 234.61 438.12 235.06 437.86 235.52 437.62 235.99 437.4 236.47 437.2 236.97 437.17 237.04 436.99 237.38 436.8 237.81 436.62 238.24 436.46 238.68 436.33 239.13 436.22 239.59 436.13 240.05 436.06 240.52 436.05 240.62 435.99 240.94 435.89 241.48 435.83 242.03 435.78 242.58 435.76 243.13 435.76 243.69 435.78 244.24 435.83 244.79 435.89 245.34 435.99 245.89 436.1 246.43 436.11 246.45 436.4 247.25 436.86 248.47 437.35 249.68 437.86 250.88 438.39 252.07 438.94 253.25 439.5 254.42 439.52 254.45 439.52 254.43 439.69 254.97 439.97 256.06 440.09 256.49 440.3 257.99 440.34 258.29 440.46 259.63 440.58 261.41 440.5 262.94 440.43 263.56 440.2 266.41 439.85 270.86 439.7 272.7 439.68 272.85 439.58 272.85 439.58 272.85 439.5 272.99 439.24 273.46 439 273.95 438.77 274.45 438.57 274.96 438.39 275.48 438.24 276.01 438.23 276.04 437.78 278.04 437.28 280.2 436.75 282.35 436.2 284.5 435.63 286.64 435.18 288.26 435.18 288.26 435.18 288.26 434.86 288.85 430.5 296.91 428.78 299.11 428.78 299.11 428.27 299.6 428.27 299.6 425.82 301.94 424.21 303.67 423.68 304.41 423.44 305.16 423.31 305.54 422.21 307.26 421.73 308.03 419.34 312.01 417.6 314.92 416.26 316.91 415.31 318.58 414.11 321.08 413.51 322.44 412.96 324.63 412.42 329.1 412.45 330.61 412.84 334.41 413.38 336.89 414.68 342.69 415.85 347.73 416.7 351.59 417.13 352.91 417.82 355.32 418.42 357.39 418.42 357.39 420.01 361.55 421.36 364.98 422.93 368.87 423.6 369.97 424.97 372.24 425.79 373.2 426.23 373.59 427.94 375.25 430.95 378.15 433.03 380.24 434.09 381.28 434.43 381.72 434.52 381.86 434.52 381.87 434.53 381.87 436.71 384.95 437.82 386.91 438.86 388.99 438.86 388.99 439.33 390.11 440.1 392.29 441.03 395.23 441.53 396.53 442.54 398.64 442.53 398.68 442.56 398.69 443.59 401.3 446.12 406.23 447.27 408.44 447.29 408.43 449.14 411.89 450.68 414.83 450.79 415.03 451.46 416.29 451.49 416.28 451.72 416.79 451.8 416.98 451.79 416.98 453.35 419.96 454.1 421.59 454.4 422.23 454.51 422.76 454.57 423.02 455.31 426.03 455.62 428.75 455.74 431.12 455.79 432.54 455.94 433.38 456.77 435.53 458.12 439.2 458.65 440.32 460.06 441.94 462.43 444.55 463.71 446.65 464.04 447.25 464.03 447.26 464.95 448.88 466.91 452.28 468.01 454.27 469 455.64 470.79 456.8 471.23 456.95 472.93 457.89 475.21 459.5 476.05 460.01 476.78 460.38 477.26 460.58 479.02 461.13 482.68 462.33 484.98 463.08 486.53 463.59 487.94 464.05 489.55 464.81 490.15 465.1 490.15 465.11 490.51 465.33 490.54 465.3 496.35 469.24 496.33 469.27 496.4 469.31 496.78 469.8 497.49 470.54 498.86 472.58 499.8 474.4 499.94 475.52 500.31 479.08 500.31 479.08 500.74 483.53 500.78 483.52 501.04 486.08 501.11 487.78 500.89 490.25 500.72 493.08 500.61 495.47 500.69 496.43 501.21 498.14 501.85 499.25 503.76 500.97 505.28 502.41 505.03 503.19 504.78 503.59 504.1 504.07 504.38 504.57 504.36 504.58 505.05 505.65 505.34 505.88 505.71 506.07 505.96 506.01 506.34 506.05 508.5 506.07 509.93 506.18 513.36 506.53 514.53 506.62 516.04 506.82 516.8 506.96 516.81 506.96 516.84 507 519.68 507.47 519.88 507.48 521.07 507.68 521.1 507.67 521.12 507.69 523.51 508.45 523.55 508.47 527.39 510.9 527.56 511.08 527.57 511.09 528.16 511.64 528.22 511.73 528.25 511.75 529.89 513.55 529.89 513.57 529.9 513.58 529.89 513.59 529.9 513.6 529.91 513.61 531.89 516.8 532.29 517.42 532.28 517.45 532.27 517.53 532.29 517.54 535.02 521.95 535.74 523.14 537.27 525.38 538.01 526.24 538.33 526.47 538.85 526.77 539.66 527.04 542.43 527.56 542.43 527.56 543.05 527.64 543.05 527.65 545.01 527.88 546.39 528.01 550.24 527.83 552.8 527.92 555.97 528.41 559.5 529.24 559.62 529.3 559.99 529.36 560.48 529.65 562.12 530.67 562.8 531.42 563.81 532.49 564.67 533.53 565.65 534.97 566.47 536.54 566.98 537.91 567.24 539.21 567.45 542.27 567.63 545.33 567.63 545.33 567.57 545.24 567.57 545.86 567.51 548.33 568 550.37 567.83 550.4 567.93 550.87 567.95 550.88 567.95 550.88 568.76 555.38 568.76 555.56 568.88 556.3 568.98 556.77 569.13 557.24 569.8 558.82 570.06 559.34 570.37 559.84 570.66 560.26 570.99 560.66 571.34 561.03 571.72 561.38 572.21 561.77 572.72 562.13 573.25 562.45 573.81 562.74 574.12 562.86 574.27 562.85 574.33 562.82 580.56 563.96 588.04 565.37 594.25 566.23 603.53 567.4 610.04 568.5 616.17 569.28 618.48 568.99 618.53 569.01 620.62 568.8 621.55 568.71 622.77 568.99 623.79 569.41 624.32 569.55 624.4 569.6 627.62 570.77 633.9 573.27 637.12 574.45 640.79 576.41 644.61 578.68 648.05 579.77 651.34 581.5 653.28 583.53 653.81 585.72 655.15 587.91 656.65 589.64 659.64 590.97 663.91 591.91 669.82 593.32 673.71 594.49 677.98 595.74 681.72 597.15 685.68 598.25 689.79 599.15 689.98 599.19 690.05 599.21 690.05 599.21 690.32 599.27 694.36 599.74 697.13 600.6 698.83 601.45 700.72 602.4 710.15 606.31 711.12 607.33 712.69 607.88 714.41 608.74 717.63 610.62 720.63 612.11 723.09 614.45 724.37 615.78 725.01 616.57 725.16 616.75 726.31 618.13 728.18 620.79 730.2 622.91 730.97 623.36 734.17 625.26 737.76 625.88 742.4 626.04 745.91 626.12 748.23 625.65 751.15 624.16 760.5 622.52 763.8 622.36 765.09 621.68 765.11 621.68 765.94 621.52 766.91 621.52 768.14 621.46 769.03 621.5 771.65 621.58 774.87 622.28 778.24 623.77 780.46 625.57 780.46 625.59 780.47 625.61 780.47 625.63 780.48 625.64 780.49 625.66 780.5 625.68 780.51 625.69 780.52 625.71 780.53 625.72 780.55 625.74 780.56 625.75 780.58 625.76 780.59 625.77 780.61 625.78 780.63 625.79 780.64 625.79 780.66 625.8 780.68 625.8 780.7 625.81 780.71 625.81 780.73 625.81 780.75 625.81 780.93 625.96 783.77 628 788.56 636.06 789.84 639.27 791.03 642.4 796.79 651.48 799.04 654.61 800.98 659.31 802.17 663.49 801.86 663.71 802.25 665.94 802.05 670.23 801.61 671.08 801.57 671.34 801.54 671.34 800.97 673.46 800.67 673.54 800.36 673.63 799.8 673.79 799.25 673.95 799 674.03 798.01 674.31 797.1 674.58 795.49 675.04 795.32 675.09 795.21 675.12 795.27 674.07 795.68 671.5 796.24 668.72 796.3 667.63 797 667.14 796.72 662.13 793.2 654.46 791.81 651.26 788.53 643.7 788.34 643.26 784.07 633.32 780.93 629.88 776.59 626.51 773.97 624.71 771.58 624.24 767.91 624.63 767.78 624.69 767.17 624.76 763.63 626.35 762.36 626.86 761.46 626.9 760.39 626.76 760.36 626.74 756.39 626.12 753.62 626.51 751.38 627.45 748.46 628.54 746.14 628.94 743.67 629.17 741.95 628.7 739.93 629.01 732.15 627.37 729.51 625.68 729.23 625.49 729.04 625.3 725.86 622.05 724.66 620.72 723.39 618.68 718.83 615.16 715.84 613.75 711.95 611.48 706.33 608.11 702.67 606.23 700.2 604.67 695.71 602.95 692.87 602.16 690.15 601.75 690.08 601.74 689.89 601.71 687.58 601 686.73 600.87 685.88 600.72 685.03 600.54 684.19 600.34 683.35 600.12 682.52 599.88 681.69 599.61 680.87 599.32 680.06 599 679.25 598.67 679.2 598.64 673.4 596.89 657.22 592.06 656.89 591.89 656.37 591.6 655.86 591.29 655.37 590.95 654.88 590.6 654.41 590.23 653.95 589.84 653.68 589.59 653.57 589.28 653.38 588.8 653.17 588.34 652.93 587.89 652.68 587.44 652.41 587.01 652.13 586.6 651.82 586.2 651.49 585.81 651.15 585.44 650.79 585.09 650.42 584.75 650.03 584.43 649.63 584.14 649.22 583.86 648.79 583.6 648.36 583.37 647.91 583.15 647.45 582.96 646.99 582.79 646.52 582.64 646.18 582.55 640.6 580.75 639.56 580.56 637.8 579.89 636.16 579.61 634.78 579.35 633.78 578.98 632.19 577.87 630.43 576.49 628.01 574.97 625.4 573.76 623.56 572.87 621.72 572.52 615.22 571.57 605.68 570.62 600.25 569.73 592.36 568.49 589.81 568.1 587.24 567.71 584.42 567.28 582.59 567.01 576.77 566.11 575.01 565.84 574.77 565.82 574.3 565.76 573.83 565.67 573.36 565.57 572.9 565.44 572.44 565.28 571.99 565.11 571.55 564.91 571.12 564.69 570.7 564.45 570.29 564.19 569.9 563.91 569.51 563.61 569.15 563.29 568.79 562.96 568.57 562.73 568.45 562.58 568.17 562.23 567.91 561.87 567.68 561.49 567.46 561.09 567.26 560.69 567.08 560.27 566.92 559.85 566.79 559.42 566.73 559.22 566.19 556.38 565.76 553.84 565.75 553.72 565.33 551.38 565.32 551.38 565.32 551.37 565.25 550.79 565.25 550.79 564.99 548.81 564.81 546.97 565.11 541.96 564.64 539.95 563.79 537.4 562.08 534.5 559.3 532.35 557.49 531.64 556.91 531.41 554.34 530.74 551.26 531.01 548.32 531.01 544.9 530.78 542.67 530.62 542.67 530.63 542.05 530.55 542.05 530.52 541.27 530.43 541.26 530.44 541.21 530.43 540.77 530.35 540.33 530.24 539.9 530.11 539.48 529.96 539.06 529.78 538.65 529.59 538.26 529.37 537.87 529.13 537.5 528.88 537.14 528.6 536.79 528.3 536.69 528.21 534.39 525.86 534.37 525.84 534.07 525.51 532.94 524.07 532.64 523.59 531.42 521.36 529.54 518.18 527.77 515.7 526.33 513.9 524.64 512.49 522.96 511.48 521.05 510.67 519.74 510.21 518.37 509.94 517.06 509.63 514.09 509.19 511.59 508.87 508.61 508.56 506.66 508.33 505.35 507.93 504.81 507.57 504.26 507.11 503.59 506.31 502.97 505.47 502.96 505.48 502.64 504.85 502.64 504.85 502.23 504.29 501.89 503.9 501.14 503.15 499.78 501.38 499.16 500.51 498.88 500.05 498.1 497.68 497.95 496.37 498.46 488.61 498.62 486.21 498.57 484.81 498.5 484.08 498.49 484.08 498.51 483.78"/><polygon class="cls-69" points="498.51 483.78 498.49 483.78 498.51 482.97 498.52 482.46 498.44 481.99 498.39 481.65 497.84 477.87 497.6 476.01 497.27 474.95 496.95 474.26 496.83 474.02 496.69 473.8 496.38 473.17 496 472.57 495.56 472.02 495.07 471.51 494.53 471.06 494.15 470.8 492.76 470.03 488.75 467.92 488.74 467.94 488.36 467.73 488.36 467.73 484.68 465.9 481.3 464.43 479.32 463.87 478.05 463.51 478.06 463.52 477.46 463.51 475.62 462.8 473.42 462.01 471.67 461.26 467.98 458.89 466.45 457.37 466.47 457.36 466.46 457.35 465.32 455.12 464.74 453.8 463.51 451.51 461.86 448.54 461.82 448.47 460.27 445.9 458.91 444.33 457.97 443.41 456.97 442.27 456.22 441.09 455.57 439.76 454.57 437.2 454.38 436.91 453.36 434.31 453.36 434.3 453.35 434.28 453.32 433.93 453.25 433.16 453.26 433.09 453.26 433.09 453.1 431.24 453.1 431.24 452.93 428.85 452.12 424.92 451.66 423.41 450.97 421.87 449.62 419.19 449.24 418.44 449.26 418.42 449.15 418.2 448.57 417.07 447.49 414.84 445.89 411.7 444.63 409.15 442.19 404.43 441.17 402.57 440.93 402.12 440.45 401.3 439.97 400.44 439.44 399.02 438.55 396.58 438.02 395 437.03 391.28 436.54 390.09 436.5 390.11 436.01 389.14 435 387.35 434.58 386.76 433.43 385.15 431.01 382.39 427.77 379.48 424.74 376.5 422.64 374.18 421.25 372.17 420.12 370.11 418.92 367.12 417.52 363.8 416.66 361.38 415.6 358.36 413.89 353.5 412.03 345.21 411.6 342.4 411.59 342.4 411.21 340.5 410.92 339.19 410.53 337.52 410.06 335.48 409.81 334.21 409.74 333.67 409.67 333.1 409.61 332.2 409.55 330.45 409.62 327.98 409.89 325.64 410.35 323.44 410.52 322.82 411.37 320.38 412.19 318.43 413.42 316.21 414.64 314.25 415.37 313.05 417.02 310.31 419.06 306.99 420.37 304.8 421.72 302.69 421.79 302.6 422.43 301.76 422.88 301.29 425.26 298.81 426.81 297.55 426.81 297.54 428.1 296.44 429.17 294.99 430.33 293.53 431.19 291.7 432.22 289.65 432.9 288.01 433.7 285.54 434.16 283.17 434.98 279.56 436.04 275.58 436.27 274.85 437.14 272.33 437.67 269.3 437.56 266.77 437.44 265.82 437.43 265.3 437.63 263.81 437.76 261.84 437.81 260.23 437.91 258.23 437.26 255.68 437.21 255.6 436.98 255.27 436.77 254.93 436.59 254.58 436.42 254.21 436.28 253.84 436.15 253.46 436.05 253.07 435.97 252.67 435.95 252.51 435.91 252.43 435.56 251.62 435.23 250.81 434.92 249.98 434.63 249.14 434.36 248.3 434.11 247.45 433.89 246.59 433.69 245.73 433.51 244.86 433.35 243.99 433.31 243.76 433.3 243.66 433.26 243.09 433.23 242.51 433.23 241.94 433.26 241.36 433.3 240.78 433.37 240.21 433.46 239.64 433.57 239.08 433.71 238.52 433.86 237.97 434.04 237.42 434.24 236.88 434.46 236.35 434.7 235.83 434.96 235.32 435.03 235.2 435.13 235.03 435.44 234.5 435.77 233.98 436.13 233.48 436.49 232.99 436.88 232.52 437.29 232.06 437.71 231.62 438.14 231.2 438.59 230.79 439.06 230.41 439.54 230.04 439.54 230.04 439.6 230.01 439.87 229.85 440.13 229.68 440.38 229.48 440.62 229.26 440.83 229.03 441.04 228.78 441.22 228.52 441.38 228.24 441.53 227.95 441.65 227.65 441.75 227.34 441.76 227.33 442.66 224.97 444.06 221.33 445.48 217.71 446.11 216.12 446.16 215.98 446.28 215.67 446.43 215.37 446.59 215.08 446.77 214.81 446.98 214.54 447.19 214.3 447.25 214.24 447.46 214.05 447.65 213.84 447.83 213.61 447.99 213.37 448.13 213.11 448.25 212.85 448.35 212.57 448.43 212.29 448.48 212 448.52 211.71 448.53 211.41 448.52 211.12 448.51 211.07 448.5 210.87 448.47 210.64 448.41 210.41 448.33 210.2 448.23 209.99 448.11 209.8 447.97 209.62 447.83 209.47 447.79 209.43 447.68 209.29 447.58 209.14 447.5 208.97 447.44 208.8 447.41 208.62 447.4 208.44 447.41 208.25 447.44 208.07 447.5 207.9 447.54 207.81 447.52 207.5 447.46 206.85 447.38 206.21 447.28 205.56 447.16 204.92 447.01 204.29 446.88 203.78 446.84 203.68 446.72 203.29 446.62 202.9 446.54 202.51 446.48 202.11 446.44 201.71 446.43 201.3 446.44 200.9 446.48 200.5 446.54 200.1 446.59 199.83 446.6 199.65 446.61 199.06 446.6 198.47 446.56 197.88 446.5 197.29 446.48 197.09 446.52 196.9 446.68 196.25 446.86 195.6 447.06 194.95 447.28 194.32 447.53 193.69 447.79 193.08 448.07 192.47 448.38 191.87 448.7 191.29 449.05 190.72 449.27 190.37 449.28 190.37 449.3 190.34 449.33 190.25 449.42 189.94 449.44 189.86 449.47 189.87 449.5 189.77 449.48 189.76 449.61 189.32 449.63 189.25 449.9 189.29 449.63 189.25 449.63 189.25 449.95 188.23 450.72 185.8 451.47 183.36 452.19 180.91 452.9 178.45 453.58 175.99 454.24 173.52 454.88 171.05 455.3 169.39 455.39 169.01 455.98 166.56 456.02 166.43 456.21 165.74 456.38 165.06 456.52 164.37 456.64 163.71 456.65 163.66 456.65 163.66 456.75 162.96 456.75 162.96 456.83 162.26 456.83 162.26 456.89 161.55 456.92 160.84 456.93 160.13 456.92 159.42 456.92 159.42 456.89 158.71 456.89 158.71 456.83 158.01 456.83 158.01 456.81 157.8 456.71 157.5 456.52 157 456.31 156.5 456.07 156.02 455.82 155.55 455.55 155.09 455.26 154.64 454.95 154.2 454.62 153.78 454.27 153.38 454.2 153.3 454.19 153.29 453.66 152.68 453.15 152.05 452.65 151.4 452.18 150.74 451.72 150.07 451.28 149.38 450.86 148.68 450.45 147.97 450.07 147.24 449.71 146.51 449.37 145.76 449.05 145 448.75 144.24 448.47 143.47 448.21 142.68 447.97 141.89 447.9 141.64 447.83 141.3 447.69 140.62 447.58 139.93 447.49 139.25 447.42 138.56 447.37 137.86 447.35 137.17 447.35 136.47 447.37 135.78 447.42 135.09 447.49 134.4 447.58 133.71 447.69 133.02 447.83 132.34 447.99 131.67 448.17 131 448.37 130.34 448.59 129.69 448.69 129.41 448.7 129.36 449.01 128.29 449.29 127.21 449.54 126.12 449.78 125.03 449.99 123.93 450.19 122.83 450.35 121.72 450.5 120.62 450.62 119.5 450.73 118.39 450.81 117.27 450.86 116.29 450.33 111.68 449.48 108.03 449.41 107.66 449.29 107.05 449.26 106.91 449.25 106.84 449.22 106.7 449 105.72 448.77 104.75 448.51 103.79 448.23 102.83 447.93 101.88 447.6 100.94 447.26 100 446.89 99.08 446.5 98.16 446.1 97.25 445.93 96.91 445.66 96.36 445.22 95.47 444.75 94.6 444.75 94.6 444.51 94.17 441.07 88.22 436.98 81.16 436.9 81.02 436.73 80.73 436.63 80.58 436.62 80.57 436.62 80.57 436.39 80.23 436.36 80.18 436.04 79.69 436.04 79.69 435.32 78.58 435.32 78.57 435.26 78.48 434.62 77.44 434 76.4 433.55 75.61 432.9 74.45 432.71 74.1 432.66 74.03 432.35 73.66 432.03 73.29 431.69 72.95 431.34 72.62 430.97 72.31 430.59 72.02 430.19 71.75 429.79 71.5 429.37 71.27 428.94 71.06 428.5 70.88 428.39 70.83 428.06 70.71 427.61 70.57 427.15 70.45 427.08 70.44 426.89 70.38 426.25 70.2 425.6 70.05 424.95 69.92 424.29 69.82 423.63 69.73 422.97 69.67 422.31 69.64 422 69.63 421.83 69.6 420.77 69.44 419.88 69.33 419.82 69.32 419.76 69.33 419.72 69.34 419.71 69.33 419.29 69.59 418.76 70.08 418.32 70.63 418 70.76 417.47 70.65 417.18 70.45 415.2 68.62 415.09 68.58 414.96 68.46 414.53 68.06 414.09 67.67 413.63 67.31 413.15 66.96 412.67 66.64 412.17 66.33 411.66 66.05 411.14 65.78 410.61 65.54 410.08 65.32 410.02 65.3 409.75 65.2 409.44 65.09 409.11 65.02 408.78 64.96 408.44 64.93 408.11 64.93 407.77 64.94 407.44 64.99 407.11 65.05 406.79 65.14 406.75 65.16 406.6 65.25 406.14 65.26 404.63 65.43 403.26 65.66 401.85 65.93 399.8 66.5 397.27 67.25 396.51 67.61 396.06 67.91 394.7 68.86 393.48 69.86 392.12 71.02 391.93 69.54 391.89 69.19 393.34 68.22 395.21 66.19 397.13 65.44 397.72 65.33 398.02 65.27 398.16 65.24 398.2 65.23 398.55 65.16 400.67 64.14 402.45 63.61 403.69 63.15 406.46 62.83 406.66 62.84 407.07 62.79 407.49 62.78 407.91 62.78 408.33 62.81 408.75 62.87 409.16 62.94 409.57 63.04 409.97 63.17 410.28 63.28 410.44 63.38 410.83 63.62 411.23 63.84 411.64 64.04 412.06 64.22 412.49 64.37 412.93 64.5 413.37 64.61 413.71 64.68 414.08 64.84 414.73 65.16 415.36 65.5 415.99 65.86 416.6 66.24 417.1 66.57 417.22 66.67 417.49 66.9 417.78 67.11 418.08 67.3 418.4 67.46 418.72 67.61 419.03 67.72 419.19 67.74 419.51 67.76 419.83 67.76 420.16 67.74 420.48 67.69 420.8 67.62 421.11 67.53 421.41 67.41 421.45 67.4 421.67 67.28 421.93 67.16 422.2 67.07 422.47 67 422.75 66.95 423.03 66.93 423.31 66.93 423.59 66.95 423.87 67 424.14 67.07 424.28 67.11 424.42 67.14 424.86 67.22 425.31 67.28 425.76 67.32 426.21 67.33 426.66 67.32 427.11 67.28 427.56 67.22 428 67.14 428.34 67.06 428.49 67 428.67 66.95 428.85 66.93 429.03 66.93 429.21 66.95 429.38 67 429.52 67.06 429.58 67.26 429.67 67.54 429.78 67.8 429.91 68.05 430.06 68.29 430.23 68.52 430.42 68.73 430.63 68.92 430.85 69.09 431.02 69.21 431.56 69.64 432.13 70.12 432.68 70.62 433.22 71.14 433.74 71.67 434.25 72.22 434.74 72.79 435.21 73.37 435.66 73.97 436.1 74.58 436.52 75.2 436.92 75.84 437.29 76.5 437.65 77.16 437.78 77.41 437.87 77.54 438.2 77.99 438.55 78.43 438.91 78.86 439.3 79.27 439.69 79.66 440.02 79.95 440.26 80.35 440.53 80.74 440.82 81.11 441.12 81.47 441.44 81.81 441.78 82.14 442.12 82.44 443.11 83.42 443.4 83.67 444.85 84.89 445.63 85.56 445.83 85.77 446.27 86.29 446.7 86.83 447.11 87.38 447.5 87.94 447.88 88.52 448.23 89.11 448.23 89.12 448.33 89.28 448.33 89.29 448.33 89.29 448.34 89.3 448.57 89.72 448.88 90.33 449.18 90.96 449.33 91.3 449.5 91.61 450.22 92.95 450.93 94.3 451.61 95.66 451.93 96.33 452.28 97.04 452.92 98.42 453.55 99.82 454.15 101.22 454.73 102.64 455.3 104.06 455.84 105.5 456 105.94 456.18 106.34 456.52 107.15 456.84 107.97 457.14 108.8 457.42 109.64 457.67 110.48 457.91 111.33 458.12 112.19 458.24 112.71 458.27 112.83 458.41 113.47 458.54 114.12 458.55 114.19 458.59 114.47 458.64 114.78 458.72 115.43 458.77 116.09 458.81 116.75 458.81 116.87 458.81 117.09 458.8 117.69 458.77 118.29 458.71 118.89 458.63 119.48 458.53 120.07 458.41 120.66 458.26 121.24 458.09 121.82 457.9 122.38 457.69 122.94 457.69 122.96 457.46 123.49 457.33 123.78 457.26 123.94 457.07 124.33 456.87 124.7 456.64 125.06 456.4 125.41 456.13 125.75 456.11 125.78 455.86 126.06 455.56 126.36 455.25 126.65 454.98 126.87 454.86 126.97 454.28 127.43 453.74 127.85 453.69 127.88 453.46 128.06 453.23 128.27 453.03 128.49 452.84 128.73 452.66 128.98 452.51 129.24 452.38 129.52 452.27 129.81 452.18 130.1 452.15 130.2 452.15 130.2 451.97 130.86 451.81 131.53 451.68 132.2 451.56 132.87 451.47 133.55 451.4 134.24 451.36 134.92 451.34 135.61 451.34 136.29 451.35 136.81 451.39 137.2 451.48 137.86 451.6 138.52 451.73 139.17 451.89 139.82 452.07 140.46 452.27 141.09 452.49 141.72 452.73 142.34 453 142.94 453.28 143.54 453.59 144.13 453.79 144.49 454.08 144.99 454.51 145.69 454.96 146.37 455.42 147.04 455.91 147.69 456.41 148.33 456.93 148.95 457.47 149.56 458.02 150.15 458.59 150.72 458.62 150.75 458.72 150.83 459.11 151.14 459.48 151.46 459.83 151.81 460.17 152.17 460.5 152.54 460.8 152.94 461.09 153.34 461.36 153.76 461.5 153.99 461.73 154.49 462 155.03 462.29 155.56 462.56 156.01 462.62 156.13 462.74 156.41 462.84 156.69 462.92 156.99 462.98 157.29 463.01 157.59 463.03 157.9 463.01 158.2 462.98 158.51 462.95 158.67 462.79 159.69 462.63 160.61 462.6 160.74 462.39 161.82 462.15 162.88 461.9 163.95 461.62 165 461.41 165.75 461.12 166.78 460.8 167.86 460.45 168.93 460.09 170 459.7 171.05 459.29 172.1 459.1 172.57 458.93 173.14 458.77 173.76 458.64 174.39 458.52 175.02 458.43 175.65 458.42 175.75 458.41 175.93 458.43 176.15 458.46 176.36 458.52 176.57 458.6 176.77 458.7 176.97 458.74 177.03 458.76 177.11 458.81 177.46 458.85 177.81 458.86 178.16 458.85 178.51 458.81 178.85 458.76 179.19 458.75 179.91 458.72 181.09 458.66 182.28 458.58 183.46 458.48 184.64 458.35 185.81 458.33 185.99 458.25 186.39 458.13 186.9 457.98 187.4 457.82 187.9 457.63 188.39 457.42 188.87 457.19 189.33 456.94 189.79 456.67 190.23 456.61 190.32 456.61 190.32 456.57 190.39 456.57 190.39 456.49 190.38 456.57 190.39 456.33 190.76 456.32 190.78 456.3 190.77 456.17 190.97 456.19 190.97 455.97 191.31 455.92 191.3 455.91 191.33 455.89 191.41 455.9 191.41 455.85 191.53 455.71 191.86 455.6 192.2 455.51 192.55 455.45 192.9 455.4 193.26 455.38 193.62 455.38 193.97 455.38 194.04 455.38 194.53 455.39 195.44 455.42 196.35 455.48 197.26 455.56 198.17 455.63 198.85 455.63 199.03 455.59 199.6 455.54 200.16 455.46 200.72 455.36 201.28 455.23 201.83 455.09 202.38 454.92 202.92 454.73 203.45 454.52 203.97 454.43 204.18 454.32 204.54 454.03 205.55 453.76 206.57 453.51 207.59 453.29 208.61 453.09 209.64 452.91 210.68 452.8 211.34 452.81 211.45 452.79 211.74 452.76 212.02 452.7 212.29 452.62 212.56 452.52 212.82 452.4 213.08 452.26 213.32 452.1 213.54 451.96 213.71 451.86 213.86 451.73 214.07 451.62 214.3 451.53 214.53 451.46 214.78 451.42 215.03 451.4 215.28 451.4 215.53 451.4 215.65 451.4 215.7 451.39 216.17 451.36 216.63 451.3 217.09 451.22 217.54 451.12 217.99 450.99 218.43 450.85 218.87 450.68 219.3 450.68 219.31 450.56 219.64 450.31 220.34 450.03 221.04 449.73 221.72 449.41 222.4 449.07 223.06 448.71 223.71 448.33 224.35 447.93 224.98 447.9 225.03 447.89 225.03 447.16 225.74 446.41 226.43 445.64 227.1 444.86 227.75 444.07 228.38 443.87 228.54 443.58 228.68 443.29 228.84 443.01 229.02 442.75 229.22 442.5 229.44 442.26 229.68 442.04 229.94 441.84 230.21 441.79 230.27 441.75 230.33 441.34 230.96 440.91 231.56 440.45 232.16 439.99 232.73 439.5 233.3 439 233.84 438.77 234.08 438.7 234.18 438.4 234.61 438.12 235.06 437.86 235.52 437.62 235.99 437.4 236.47 437.2 236.97 437.17 237.04 436.99 237.38 436.8 237.81 436.62 238.24 436.46 238.68 436.33 239.13 436.22 239.59 436.13 240.05 436.06 240.52 436.05 240.62 435.99 240.94 435.89 241.48 435.83 242.03 435.78 242.58 435.76 243.13 435.76 243.69 435.78 244.24 435.83 244.79 435.89 245.34 435.99 245.89 436.1 246.43 436.11 246.45 436.4 247.25 436.86 248.47 437.35 249.68 437.86 250.88 438.39 252.07 438.94 253.25 439.5 254.42 439.52 254.45 439.52 254.43 439.69 254.97 439.97 256.06 440.09 256.49 440.3 257.99 440.34 258.29 440.46 259.63 440.58 261.41 440.5 262.94 440.43 263.56 440.2 266.41 439.85 270.86 439.7 272.7 439.68 272.85 439.58 272.85 439.58 272.85 439.5 272.99 439.24 273.46 439 273.95 438.77 274.45 438.57 274.96 438.39 275.48 438.24 276.01 438.23 276.04 437.78 278.04 437.28 280.2 436.75 282.35 436.2 284.5 435.63 286.64 435.18 288.26 435.18 288.26 435.18 288.26 434.86 288.85 430.5 296.91 428.78 299.11 428.78 299.11 428.27 299.6 428.27 299.6 425.82 301.94 424.21 303.67 423.68 304.41 423.44 305.16 423.31 305.54 422.21 307.26 421.73 308.03 419.34 312.01 417.6 314.92 416.26 316.91 415.31 318.58 414.11 321.08 413.51 322.44 412.96 324.63 412.42 329.1 412.45 330.61 412.84 334.41 413.38 336.89 414.68 342.69 415.85 347.73 416.7 351.59 417.13 352.91 417.82 355.32 418.42 357.39 418.42 357.39 420.01 361.55 421.36 364.98 422.93 368.87 423.6 369.97 424.97 372.24 425.79 373.2 426.23 373.59 427.94 375.25 430.95 378.15 433.03 380.24 434.09 381.28 434.43 381.72 434.52 381.86 434.52 381.87 434.53 381.87 436.71 384.95 437.82 386.91 438.86 388.99 438.86 388.99 439.33 390.11 440.1 392.29 441.03 395.23 441.53 396.53 442.54 398.64 442.53 398.68 442.56 398.69 443.59 401.3 446.12 406.23 447.27 408.44 447.29 408.43 449.14 411.89 450.68 414.83 450.79 415.03 451.46 416.29 451.49 416.28 451.72 416.79 451.8 416.98 451.79 416.98 453.35 419.96 454.1 421.59 454.4 422.23 454.51 422.76 454.57 423.02 455.31 426.03 455.62 428.75 455.74 431.12 455.79 432.54 455.94 433.38 456.77 435.53 458.12 439.2 458.65 440.32 460.06 441.94 462.43 444.55 463.71 446.65 464.04 447.25 464.03 447.26 464.95 448.88 466.91 452.28 468.01 454.27 469 455.64 470.79 456.8 471.23 456.95 472.93 457.89 475.21 459.5 476.05 460.01 476.78 460.38 477.26 460.58 479.02 461.13 482.68 462.33 484.98 463.08 486.53 463.59 487.94 464.05 489.55 464.81 490.15 465.1 490.15 465.11 490.51 465.33 490.54 465.3 496.35 469.24 496.33 469.27 496.4 469.31 496.78 469.8 497.49 470.54 498.86 472.58 499.8 474.4 499.94 475.52 500.31 479.08 500.31 479.08 500.74 483.53 500.78 483.52 501.04 486.08 501.11 487.78 500.89 490.25 500.72 493.08 500.61 495.47 500.69 496.43 501.21 498.14 501.85 499.25 503.76 500.97 505.28 502.41 505.03 503.19 504.78 503.59 504.1 504.07 504.38 504.57 504.36 504.58 505.05 505.65 505.34 505.88 505.71 506.07 505.96 506.01 506.34 506.05 508.5 506.07 509.93 506.18 513.36 506.53 514.53 506.62 516.04 506.82 516.8 506.96 516.81 506.96 516.84 507 519.68 507.47 519.88 507.48 521.07 507.68 521.1 507.67 521.12 507.69 523.51 508.45 523.55 508.47 527.39 510.9 527.56 511.08 527.57 511.09 528.16 511.64 528.22 511.73 528.25 511.75 529.89 513.55 529.89 513.57 529.9 513.58 529.89 513.59 529.9 513.6 529.91 513.61 531.89 516.8 532.29 517.42 532.28 517.45 532.27 517.53 532.29 517.54 535.02 521.95 535.74 523.14 537.27 525.38 538.01 526.24 538.33 526.47 538.85 526.77 539.66 527.04 542.43 527.56 542.43 527.56 543.05 527.64 543.05 527.65 545.01 527.88 546.39 528.01 550.24 527.83 552.8 527.92 555.97 528.41 559.5 529.24 559.62 529.3 559.99 529.36 560.48 529.65 562.12 530.67 562.8 531.42 563.81 532.49 564.67 533.53 565.65 534.97 566.47 536.54 566.98 537.91 567.24 539.21 567.45 542.27 567.63 545.33 567.63 545.33 567.57 545.24 567.57 545.86 567.51 548.33 568 550.37 567.83 550.4 567.93 550.87 567.95 550.88 567.95 550.88 568.76 555.38 568.76 555.56 568.88 556.3 568.98 556.77 569.13 557.24 569.8 558.82 570.06 559.34 570.37 559.84 570.66 560.26 570.99 560.66 571.34 561.03 571.72 561.38 572.21 561.77 572.72 562.13 573.25 562.45 573.81 562.74 574.12 562.86 574.27 562.85 574.33 562.82 580.56 563.96 588.04 565.37 594.25 566.23 603.53 567.4 610.04 568.5 616.17 569.28 618.48 568.99 618.53 569.01 620.62 568.8 621.55 568.71 622.77 568.99 623.79 569.41 624.32 569.55 624.4 569.6 627.62 570.77 633.9 573.27 637.12 574.45 640.79 576.41 644.61 578.68 648.05 579.77 651.34 581.5 653.28 583.53 653.81 585.72 655.15 587.91 656.65 589.64 659.64 590.97 663.91 591.91 669.82 593.32 673.71 594.49 677.98 595.74 681.72 597.15 685.68 598.25 689.79 599.15 689.98 599.19 690.05 599.21 690.05 599.21 690.32 599.27 694.36 599.74 697.13 600.6 698.83 601.45 700.72 602.4 710.15 606.31 711.12 607.33 712.69 607.88 714.41 608.74 717.63 610.62 720.63 612.11 723.09 614.45 724.37 615.78 725.01 616.57 725.16 616.75 726.31 618.13 728.18 620.79 730.2 622.91 730.97 623.36 734.17 625.26 737.76 625.88 742.4 626.04 745.91 626.12 748.23 625.65 751.15 624.16 760.5 622.52 763.8 622.36 765.09 621.68 765.11 621.68 765.94 621.52 766.91 621.52 768.14 621.46 769.03 621.5 771.65 621.58 774.87 622.28 778.24 623.77 780.46 625.57 780.46 625.59 780.47 625.61 780.47 625.63 780.48 625.64 780.49 625.66 780.5 625.68 780.51 625.69 780.52 625.71 780.53 625.72 780.55 625.74 780.56 625.75 780.58 625.76 780.59 625.77 780.61 625.78 780.63 625.79 780.64 625.79 780.66 625.8 780.68 625.8 780.7 625.81 780.71 625.81 780.73 625.81 780.75 625.81 780.93 625.96 783.77 628 788.56 636.06 789.84 639.27 791.03 642.4 796.79 651.48 799.04 654.61 800.98 659.31 802.17 663.49 801.86 663.71 802.25 665.94 802.05 670.23 801.61 671.08 801.57 671.34 801.54 671.34 800.97 673.46 800.67 673.54 800.36 673.63 799.8 673.79 799.25 673.95 799 674.03 798.01 674.31 797.1 674.58 795.49 675.04 795.32 675.09 795.21 675.12 795.27 674.07 795.68 671.5 796.24 668.72 796.3 667.63 797 667.14 796.72 662.13 793.2 654.46 791.81 651.26 788.53 643.7 788.34 643.26 784.07 633.32 780.93 629.88 776.59 626.51 773.97 624.71 771.58 624.24 767.91 624.63 767.78 624.69 767.17 624.76 763.63 626.35 762.36 626.86 761.46 626.9 760.39 626.76 760.36 626.74 756.39 626.12 753.62 626.51 751.38 627.45 748.46 628.54 746.14 628.94 743.67 629.17 741.95 628.7 739.93 629.01 732.15 627.37 729.51 625.68 729.23 625.49 729.04 625.3 725.86 622.05 724.66 620.72 723.39 618.68 718.83 615.16 715.84 613.75 711.95 611.48 706.33 608.11 702.67 606.23 700.2 604.67 695.71 602.95 692.87 602.16 690.15 601.75 690.08 601.74 689.89 601.71 687.58 601 686.73 600.87 685.88 600.72 685.03 600.54 684.19 600.34 683.35 600.12 682.52 599.88 681.69 599.61 680.87 599.32 680.06 599 679.25 598.67 679.2 598.64 673.4 596.89 657.22 592.06 656.89 591.89 656.37 591.6 655.86 591.29 655.37 590.95 654.88 590.6 654.41 590.23 653.95 589.84 653.68 589.59 653.57 589.28 653.38 588.8 653.17 588.34 652.93 587.89 652.68 587.44 652.41 587.01 652.13 586.6 651.82 586.2 651.49 585.81 651.15 585.44 650.79 585.09 650.42 584.75 650.03 584.43 649.63 584.14 649.22 583.86 648.79 583.6 648.36 583.37 647.91 583.15 647.45 582.96 646.99 582.79 646.52 582.64 646.18 582.55 640.6 580.75 639.56 580.56 637.8 579.89 636.16 579.61 634.78 579.35 633.78 578.98 632.19 577.87 630.43 576.49 628.01 574.97 625.4 573.76 623.56 572.87 621.72 572.52 615.22 571.57 605.68 570.62 600.25 569.73 592.36 568.49 589.81 568.1 587.24 567.71 584.42 567.28 582.59 567.01 576.77 566.11 575.01 565.84 574.77 565.82 574.3 565.76 573.83 565.67 573.36 565.57 572.9 565.44 572.44 565.28 571.99 565.11 571.55 564.91 571.12 564.69 570.7 564.45 570.29 564.19 569.9 563.91 569.51 563.61 569.15 563.29 568.79 562.96 568.57 562.73 568.45 562.58 568.17 562.23 567.91 561.87 567.68 561.49 567.46 561.09 567.26 560.69 567.08 560.27 566.92 559.85 566.79 559.42 566.73 559.22 566.19 556.38 565.76 553.84 565.75 553.72 565.33 551.38 565.32 551.38 565.32 551.37 565.25 550.79 565.25 550.79 564.99 548.81 564.81 546.97 565.11 541.96 564.64 539.95 563.79 537.4 562.08 534.5 559.3 532.35 557.49 531.64 556.91 531.41 554.34 530.74 551.26 531.01 548.32 531.01 544.9 530.78 542.67 530.62 542.67 530.63 542.05 530.55 542.05 530.52 541.27 530.43 541.26 530.44 541.21 530.43 540.77 530.35 540.33 530.24 539.9 530.11 539.48 529.96 539.06 529.78 538.65 529.59 538.26 529.37 537.87 529.13 537.5 528.88 537.14 528.6 536.79 528.3 536.69 528.21 534.39 525.86 534.37 525.84 534.07 525.51 532.94 524.07 532.64 523.59 531.42 521.36 529.54 518.18 527.77 515.7 526.33 513.9 524.64 512.49 522.96 511.48 521.05 510.67 519.74 510.21 518.37 509.94 517.06 509.63 514.09 509.19 511.59 508.87 508.61 508.56 506.66 508.33 505.35 507.93 504.81 507.57 504.26 507.11 503.59 506.31 502.97 505.47 502.96 505.48 502.64 504.85 502.64 504.85 502.23 504.29 501.89 503.9 501.14 503.15 499.78 501.38 499.16 500.51 498.88 500.05 498.1 497.68 497.95 496.37 498.46 488.61 498.62 486.21 498.57 484.81 498.5 484.08 498.49 484.08 498.51 483.78"/></svg>